<svg width="105" height="105" viewBox="0 0 105 105" fill="none" xmlns="http://www.w3.org/2000/svg">
<g clip-path="url(#clip0_751_14805)">
<path fill-rule="evenodd" clip-rule="evenodd" d="M105 59.8216C105.002 60.2512 105 60.6879 104.988 61.1294C104.728 72.1663 100.182 87.1073 87.3933 96.3187C87.3909 96.3234 87.3885 96.3234 87.3862 96.3258C87.3742 96.3354 87.3647 96.3425 87.3527 96.3521H87.3504C85.2456 97.865 82.9189 99.2229 80.3512 100.383H80.3488C80.3297 100.39 80.313 100.399 80.2939 100.407C78.9337 101.02 77.509 101.576 76.0104 102.07C75.4448 102.256 74.8673 102.435 74.2802 102.604C69.4837 103.991 64.0093 104.759 57.7761 104.726C49.8582 104.683 42.6538 104.122 36.2273 103.027C36.1605 103.017 36.0913 103.005 36.0244 102.993C12.5904 98.9532 -0.434417 87.7803 0.0118335 68.7204C0.582174 44.3914 14.6904 43.0622 21.0906 27.3671C27.9347 10.5814 40.8616 0.57299 59.27 0.281854C81.1673 -0.0617824 89.1019 10.159 90.0684 23.2864C90.8989 34.5357 104.53 42.5348 104.988 59.1845C104.995 59.3945 104.998 59.6068 105 59.8216Z" fill="url(#paint0_linear_751_14805)"/>
<path fill-rule="evenodd" clip-rule="evenodd" d="M83.8463 67.1534C83.8463 67.1534 83.8232 68.3514 78.2419 70.4795V66.4063C78.2419 66.4063 82.1179 65.3107 83.8463 67.1534Z" fill="#006293"/>
<path fill-rule="evenodd" clip-rule="evenodd" d="M33.7555 73.6727C33.7555 73.6727 28.9584 72.8997 26.7222 59.6514L33.2995 60.2048C33.2995 60.205 34.5399 73.0961 33.7555 73.6727Z" fill="#006293"/>
<path fill-rule="evenodd" clip-rule="evenodd" d="M87.3528 96.3519H87.3504C85.2457 97.8649 82.919 99.2227 80.3512 100.383H80.3488C80.3298 100.39 80.313 100.399 80.294 100.406C79.1771 96.7552 77.5115 91.6246 76.4209 89.6797C74.6526 86.5225 73.6312 77.3064 71.1327 71.6841C71.1327 71.6841 69.7128 65.3889 79.967 64.0215C79.967 64.0215 82.3176 78.4494 83.5919 81.8071C84.5488 84.3223 86.1596 90.8609 87.3528 96.3519Z" fill="#F9CDB5"/>
<path fill-rule="evenodd" clip-rule="evenodd" d="M87.3504 96.3519C85.2457 97.8649 82.919 99.2227 80.3512 100.383H80.3488C80.3298 100.39 80.313 100.399 80.294 100.406C79.1771 96.7552 77.5115 91.6246 76.4209 89.6797C74.6526 86.5225 73.6312 77.3064 71.1327 71.6841C71.1327 71.6841 69.7128 65.3889 79.967 64.0215C79.967 64.0215 80.313 66.1501 80.8118 68.9636C79.3418 69.5149 77.2585 70.7534 75.9913 73.4977C75.9913 73.4977 77.4733 84.4082 80.1866 88.7108C82.3534 92.1472 82.4083 96.593 86.8159 93.9441C86.9996 94.7579 87.181 95.5644 87.3504 96.3519Z" fill="#F7B088"/>
<path fill-rule="evenodd" clip-rule="evenodd" d="M29.8602 58.533C29.8602 58.533 18.2561 69.6451 17.1934 73.3283C17.1934 73.3283 14.5562 84.018 25.5514 76.1573C36.5466 68.2966 36.6447 68.5691 36.6084 68.0833C36.5726 67.5976 35.8846 56.1331 29.8602 58.533Z" fill="#F7B088"/>
<path fill-rule="evenodd" clip-rule="evenodd" d="M24.84 72.4019C24.84 72.4019 25.1345 66.4102 24.7186 60.0372C24.2241 52.4614 23.6042 46.7613 24.3969 45.1405C25.1899 43.5197 27.0439 41.3982 26.9959 39.9192C26.9479 38.4401 27.4269 37.5018 27.7123 36.9787C27.9977 36.4556 28.0967 34.3928 27.2405 33.8731C26.3843 33.3533 26.0261 36.0394 25.5822 37.0135C25.1383 37.9876 23.8989 38.2788 23.5025 39.1073C23.5025 39.1073 22.4554 36.9405 21.6535 33.811C20.8517 30.682 20.5747 26.1694 19.0061 26.5006C18.0652 26.6992 19.7788 34.1427 19.3905 34.2196C18.7861 34.3394 16.8188 26.4739 15.5967 27.008C14.3749 27.5425 17.6223 35.1398 16.8796 35.4576C16.137 35.775 15.0187 29.0163 13.6948 29.5509C12.6047 29.9909 15.6029 36.773 14.7352 37.2269C14.0069 37.6082 12.4341 32.1788 11.3268 32.8508C10.6118 33.2841 12.6359 37.0737 13.0669 38.8988C13.4979 40.7238 14.2078 42.4898 15.0373 43.9574C15.8668 45.4245 17.2445 46.5256 17.2077 48.6022C17.1199 53.5687 12.4338 78.1869 18.7515 78.9925C22.9183 79.5235 24.84 72.4019 24.84 72.4019Z" fill="#F9CDB5"/>
<path fill-rule="evenodd" clip-rule="evenodd" d="M22.5859 36.8474C23.0906 38.2544 23.5025 39.1068 23.5025 39.1068C23.8989 38.2783 25.1384 37.9872 25.5822 37.013C26.0225 36.0466 26.3783 33.3967 27.2195 33.8607C27.2267 33.8645 27.2336 33.8688 27.2405 33.8726C27.2405 33.8726 26.1996 36.1979 26.3296 37.4488C26.4597 38.6992 20.3733 43.0687 21.2395 45.6393C21.2395 45.6393 19.9232 43.125 21.6194 40.8608C22.9033 39.1479 22.7747 37.8507 22.5859 36.8474Z" fill="#F7B088"/>
<path fill-rule="evenodd" clip-rule="evenodd" d="M19.0947 26.4863L19.0966 26.4925C19.0966 26.4925 18.9839 27.5974 19.2987 29.3514C19.6135 31.1059 20.2521 33.8592 19.4149 34.2301L19.4094 34.2081C19.7192 33.8812 18.0819 26.6954 19.0064 26.5002C19.0362 26.4935 19.0656 26.4892 19.0947 26.4863ZM15.7165 26.9817L15.6569 27.103C15.6569 27.103 15.8447 29.5571 16.5713 31.4605C17.298 33.3638 17.5135 35.2877 16.931 35.512L16.9071 35.4409C17.539 34.9431 14.3912 27.5349 15.5972 27.0075C15.6364 26.9908 15.6762 26.9822 15.7165 26.9817ZM13.8194 29.5213L13.8151 29.5595C13.8151 29.5595 13.6454 30.6257 14.1485 32.2752C14.6515 33.9246 15.6187 36.8508 14.8116 37.171L14.8081 37.1634C15.4147 36.342 12.6405 29.9761 13.6955 29.5504C13.7368 29.5337 13.7783 29.5242 13.8194 29.5213Z" fill="#F7B088"/>
<path fill-rule="evenodd" clip-rule="evenodd" d="M11.3186 32.8563L11.3277 32.8506C11.3277 32.8506 12.969 37.4744 13.6508 38.4099C14.3326 39.3448 17.6 45.9694 19.4699 46.3765C21.3399 46.7841 18.2068 47.0585 18.3094 48.9848C18.4042 50.7622 15.5651 74.8315 24.472 73.5142C23.7341 75.4947 21.8728 79.3902 18.7524 78.9921C12.4347 78.1865 17.1208 53.5683 17.2086 48.6018C17.2454 46.5252 15.8677 45.4241 15.0382 43.957C14.2087 42.4893 13.4988 40.7234 13.0678 38.8983C12.6385 37.0816 10.6297 33.3159 11.3186 32.8563Z" fill="#F7B088"/>
<path fill-rule="evenodd" clip-rule="evenodd" d="M45.5326 48.6765C45.5326 48.6765 39.9118 35.53 45.7698 22.4766C51.6281 9.42318 59.4072 11.4993 59.4072 11.4993C59.4072 11.4993 61.5167 10.5772 62.2398 12.6223C62.9628 14.6679 67.7957 29.2529 67.7957 29.2529L66.0923 46.7989L45.5326 48.6765Z" fill="#491B0F"/>
<path fill-rule="evenodd" clip-rule="evenodd" d="M61.1029 32.4688L49.7667 33.2362C49.7667 33.2362 50.9918 42.114 48.5411 43.6446C46.0671 45.1895 51.0906 51.868 55.2362 51.6136C60.0185 51.3205 63.7923 46.6605 61.5267 43.8135C59.231 40.9294 61.1029 32.4688 61.1029 32.4688Z" fill="#F9CDB5"/>
<path fill-rule="evenodd" clip-rule="evenodd" d="M50.0659 38.4853C50.1274 35.8498 49.7666 33.2362 49.7666 33.2362L61.1028 32.4688C61.1028 32.4688 60.5014 35.1849 60.3983 38.0638C58.3026 39.3439 54.8286 40.4316 50.0659 38.4853Z" fill="#F7B088"/>
<path fill-rule="evenodd" clip-rule="evenodd" d="M47.4699 24.7574C47.4699 24.7574 47.1201 22.8664 45.7954 22.8086C44.4709 22.7504 43.6123 25.1721 43.971 26.6459C44.3294 28.1193 45.9717 31.2597 47.8863 28.5755L47.4699 24.7574Z" fill="#F7B088"/>
<path fill-rule="evenodd" clip-rule="evenodd" d="M56.5177 10.0342C52.1979 9.78599 45.6154 12.8448 46.7463 25.3246C47.6295 35.0724 52.4728 37.4669 55.2577 37.5246C58.1643 37.5847 63.2095 33.2578 63.9068 26.6089C64.6041 19.96 66.2584 10.594 56.5177 10.0342Z" fill="#F9CDB5"/>
<path fill-rule="evenodd" clip-rule="evenodd" d="M56.3478 37.3709C55.9626 37.4793 55.5956 37.5318 55.2577 37.5246C52.4728 37.4668 47.6295 35.0724 46.7463 25.3246C45.6154 12.8448 52.1979 9.78599 56.5177 10.0342C64.7879 10.5095 64.8437 17.3321 64.2452 23.4513C63.8138 23.7276 63.5603 23.8727 63.5603 23.8727C63.5603 23.8727 62.6936 23.2255 61.4785 21.3455C60.2633 19.4651 59.7317 17.5364 59.7656 15.7586C59.7656 15.7586 54.3075 17.9223 51.3154 18.9317C48.3234 19.9412 46.5537 24.7451 48.4112 31.1258C49.4875 34.8232 52.6007 37.3685 56.3478 37.3709Z" fill="#F7B088"/>
<path fill-rule="evenodd" clip-rule="evenodd" d="M54.4845 21.8281C54.4845 21.8281 55.0759 23.9754 54.7623 25.8668C54.4492 27.7578 53.9209 27.9277 55.4295 28.8832C55.4295 28.8832 53.6712 28.6961 53.4732 27.8146C53.2746 26.9326 54.1705 26.8414 54.3036 25.4229C54.4368 24.004 54.4845 21.8281 54.4845 21.8281Z" fill="#E89972"/>
<path fill-rule="evenodd" clip-rule="evenodd" d="M52.2876 31.2522C52.6933 30.3124 54.221 31.014 55.3264 30.9324C56.9004 30.8159 57.4822 30.0661 58.0593 30.7801C58.6363 31.4941 57.4903 33.1469 55.324 33.1698C53.1581 33.1927 51.8671 32.2263 52.2876 31.2522Z" fill="#D89595"/>
<path fill-rule="evenodd" clip-rule="evenodd" d="M58.875 21.7871C59.4473 21.7871 59.9116 22.4037 59.9116 23.1636C59.9116 23.9234 59.4473 24.5405 58.875 24.5405C58.3023 24.5405 57.8379 23.9234 57.8379 23.1636C57.8379 22.4037 58.3023 21.7871 58.875 21.7871Z" fill="#383637"/>
<path fill-rule="evenodd" clip-rule="evenodd" d="M57.5881 21.6836C57.5881 21.6836 58.0325 22.1666 58.8892 22.0163L58.6563 22.4859C58.6563 22.4859 57.7852 22.4076 57.5881 21.6836Z" fill="#383637"/>
<path fill-rule="evenodd" clip-rule="evenodd" d="M47.0194 27.202C47.0194 27.202 46.418 27.2316 46.4724 26.4546C46.5268 25.6771 46.855 25.7802 46.4149 25.0013C46.1338 24.504 45.5198 24.1159 45.0289 24.2567C44.3524 24.451 43.8169 25.5334 44.723 27.475C45.4112 28.9498 46.829 28.492 47.0194 27.202Z" fill="#E89972"/>
<path fill-rule="evenodd" clip-rule="evenodd" d="M57.7757 21.0156C57.7757 21.0156 58.02 21.6251 58.8748 21.7874L58.4906 22.1444C58.4906 22.1444 57.7036 21.763 57.7757 21.0156Z" fill="#383637"/>
<path fill-rule="evenodd" clip-rule="evenodd" d="M50.9141 21.7871C51.4863 21.7871 51.9512 22.4037 51.9512 23.1636C51.9512 23.9234 51.4863 24.5405 50.9141 24.5405C50.3418 24.5405 49.877 23.9234 49.877 23.1636C49.877 22.4037 50.3418 21.7871 50.9141 21.7871Z" fill="#383637"/>
<path fill-rule="evenodd" clip-rule="evenodd" d="M49.6277 21.6836C49.6277 21.6836 50.072 22.1666 50.9287 22.0163L50.6953 22.4859C50.6953 22.4859 49.8248 22.4076 49.6277 21.6836Z" fill="#383637"/>
<path fill-rule="evenodd" clip-rule="evenodd" d="M49.8155 21.0156C49.8155 21.0156 50.0598 21.6251 50.9141 21.7874L50.5299 22.1444C50.5299 22.1444 49.7434 21.763 49.8155 21.0156Z" fill="#383637"/>
<path fill-rule="evenodd" clip-rule="evenodd" d="M56.3225 20.2482C56.3225 20.2482 58.832 19.0412 61.2403 20.6081C61.2403 20.6081 60.3354 18.8913 58.926 18.9324C57.0923 18.9853 56.3225 20.2482 56.3225 20.2482Z" fill="#9B4C34"/>
<path fill-rule="evenodd" clip-rule="evenodd" d="M52.6007 20.2482C52.6007 20.2482 50.0917 19.0412 47.6831 20.6081C47.6831 20.6081 48.5878 18.8913 49.9976 18.9324C51.8308 18.9853 52.6007 20.2482 52.6007 20.2482Z" fill="#9B4C34"/>
<path fill-rule="evenodd" clip-rule="evenodd" d="M54.505 30.8928C54.789 30.9281 55.0692 30.9515 55.3264 30.9324C56.9005 30.8159 57.4823 30.0661 58.0593 30.7801C58.6363 31.4941 57.4904 33.1469 55.324 33.1698C54.0979 33.1827 53.152 32.8787 52.6384 32.4353C53.0298 32.0124 53.6698 31.4034 54.505 30.8928Z" fill="#EDAEAE"/>
<path fill-rule="evenodd" clip-rule="evenodd" d="M52.9189 30.7829C53.5766 30.6645 54.5546 30.989 55.3263 30.9322C56.8226 30.8215 57.4225 30.1385 57.9737 30.685C57.5919 31.2005 56.8932 31.757 55.6499 31.7761C54.2897 31.7971 53.3848 31.2014 52.9189 30.7829Z" fill="white"/>
<path fill-rule="evenodd" clip-rule="evenodd" d="M62.5447 21.2695C62.5447 21.2695 63.767 23.9981 63.5236 26.2041C63.5236 26.2041 63.9627 24.1246 65.0799 23.1261L62.5447 21.2695Z" fill="#803E26"/>
<path fill-rule="evenodd" clip-rule="evenodd" d="M47.6831 21.2695C47.6831 21.2695 47.0622 23.6864 47.3056 25.8924C47.3056 25.8924 46.7484 23.8129 45.6311 22.8145L47.6831 21.2695Z" fill="#803E26"/>
<path fill-rule="evenodd" clip-rule="evenodd" d="M60.9825 12.6049C60.9825 12.6049 58.5131 15.208 56.2494 16.2217C53.9852 17.2359 44.849 18.116 44.4767 32.7162C44.1045 47.317 47.9778 45.7253 47.9778 45.7253L38.5724 49.6523C38.5724 49.6523 35.604 46.6693 36.8974 41.9042C38.1908 37.1396 41.4153 33.6799 41.5938 26.3561C41.7723 19.0324 42.8681 8.90271 51.3153 7.13919C59.7626 5.37519 61.7853 10.8691 61.7853 10.8691C61.7853 10.8691 70.0688 13.6368 69.73 23.5707C69.3906 33.5047 67.1603 38.5886 71.1866 43.211C75.2129 47.8334 75.8577 48.4696 72.4767 53.1526C69.0957 57.8353 63.4615 47.788 63.4615 47.788C63.4615 47.788 61.8149 40.5731 64.111 33.5987C66.4072 26.6239 63.0429 23.2257 61.7776 20.2222C60.5124 17.2187 60.6446 14.2873 60.9825 12.6049Z" fill="#9B4C34"/>
<path fill-rule="evenodd" clip-rule="evenodd" d="M51.3154 7.13919C59.7627 5.37519 61.7854 10.8691 61.7854 10.8691C61.7854 10.8691 65.8384 12.2231 68.1584 16.4374C64.0624 12.2107 61.1745 14.9722 61.1745 14.9722C61.1745 14.9722 61.0193 15.0781 60.7535 15.2576C60.7377 14.2148 60.8427 13.3022 60.9826 12.6049C60.9826 12.6049 59.7522 13.9021 58.2321 15.0214C58.9332 14.1384 59.3637 12.9844 59.326 11.0848C59.2339 6.42471 51.8018 7.09051 51.3383 7.13681L51.3154 7.13919Z" fill="#9B4C34"/>
<path fill-rule="evenodd" clip-rule="evenodd" d="M51.2953 7.15349C50.8834 7.43508 44.2913 12.0828 44.9946 20.531C44.9946 20.531 48.7596 16.8235 53.3547 16.1424C57.9499 15.4619 60.8856 12.9705 61.7438 10.8452C61.7438 10.8452 60.1883 18.6691 65.5319 21.7175C65.5319 21.7175 64.2466 20.2637 63.9807 18.9517C63.9807 18.9517 66.1814 21.8626 67.8939 23.4547C69.6063 25.0464 68.4781 28.5826 67.3078 32.1039C66.1371 35.6247 67.0644 37.8689 67.0644 37.8689C67.0644 37.8689 68.0628 32.5592 69.3209 29.4402C68.7143 35.7078 68.0414 39.6004 71.1866 43.2114C75.2129 47.8338 75.8577 48.47 72.4767 53.153C69.0957 57.8358 63.4615 47.7885 63.4615 47.7885C63.4615 47.7885 61.8149 40.5736 64.111 33.5992C66.4072 26.6243 63.0429 23.2261 61.7776 20.2226C60.5124 17.2192 60.6446 14.2878 60.9825 12.6054C60.9825 12.6054 58.5131 15.2084 56.2494 16.2221C53.9852 17.2364 44.849 18.1164 44.4767 32.7167C44.1045 47.3174 47.9778 45.7257 47.9778 45.7257L38.5724 49.6527C38.5724 49.6527 35.604 46.6698 36.8974 41.9047C38.1908 37.1401 41.4153 33.6803 41.5938 26.3566C41.7723 19.0328 42.8681 8.90317 51.3153 7.13965L51.2953 7.15349Z" fill="#803E26"/>
<path fill-rule="evenodd" clip-rule="evenodd" d="M42.971 32.75C42.975 32.6713 42.9793 32.6302 42.9793 32.6302C42.9767 32.6699 42.9738 32.7099 42.971 32.75C42.9397 33.3376 42.9115 36.0308 44.6796 39.5087C45.4599 46.7604 47.9778 45.7257 47.9778 45.7257L38.5724 49.6527C38.5724 49.6527 35.604 46.6697 36.8974 41.9046C37.4501 39.8686 38.3552 38.0712 39.2251 36.1077H39.2253C39.2253 36.1077 38.592 40.4504 39.9069 43.9053C39.9066 43.9053 42.6182 37.5199 42.971 32.75ZM64.731 27.1836L67.5803 25.3213C67.5803 25.3213 67.7369 27.9611 65.2885 36.4594C63.2171 43.6495 71.3064 43.6844 74.5929 49.2937C74.3891 50.3056 73.6937 51.4668 72.4767 53.153C69.0957 57.8357 63.4615 47.7884 63.4615 47.7884C63.4615 47.7884 61.8149 40.5735 64.111 33.5991C64.9577 31.0276 65.0346 28.9419 64.731 27.1836Z" fill="#682C19"/>
<path fill-rule="evenodd" clip-rule="evenodd" d="M64.0339 24.7571C64.0339 24.7571 64.4839 23.2279 65.8088 23.1697C67.1333 23.1114 68.1871 24.5647 67.6163 26.6495C67.2158 28.1118 65.5325 31.2594 63.6177 28.5752L64.0339 24.7571Z" fill="#F9CDB5"/>
<path fill-rule="evenodd" clip-rule="evenodd" d="M64.3594 26.8984C64.3594 26.8984 64.9612 26.928 64.9063 26.1505C64.8519 25.3735 64.524 25.4766 64.9641 24.6977C65.2452 24.2004 65.8594 23.8119 66.3501 23.9532C67.0268 24.1469 67.5624 25.2299 66.656 27.1709C65.9678 28.6457 64.5503 28.188 64.3594 26.8984Z" fill="#F9CDB5"/>
<path fill-rule="evenodd" clip-rule="evenodd" d="M37.2351 47.4307C37.2351 47.4307 35.0685 50.0738 32.4502 53.2539C29.8318 56.4335 26.7222 59.6515 26.7222 59.6515C26.7222 59.6515 34.4055 65.3496 33.7555 73.6728L48.9208 62.4695C48.9208 62.4698 42.1581 46.3315 37.2351 47.4307Z" fill="#F7F7F7"/>
<path fill-rule="evenodd" clip-rule="evenodd" d="M27.9497 58.3525C29.2372 59.3589 32.8224 62.4354 34.0454 66.3557C34.7967 68.7633 35.1592 70.8669 35.23 72.5839L33.7555 73.673C34.4055 65.3498 26.7222 59.6517 26.7222 59.6517C26.7222 59.6517 27.2047 59.1524 27.9497 58.3525Z" fill="#0074BD"/>
<path fill-rule="evenodd" clip-rule="evenodd" d="M73.2156 48.4082C73.2156 48.4082 75.4416 50.6409 78.8417 57.1208C82.2422 63.6003 83.8463 67.1538 83.8463 67.1538C83.8463 67.1538 79.7361 63.5726 69.0552 72.5074C69.0552 72.5074 69.8055 55.1578 73.2156 48.4082Z" fill="#F7F7F7"/>
<path fill-rule="evenodd" clip-rule="evenodd" d="M73.2418 48.527C73.4981 49.693 75.6048 59.1609 77.3631 63.5759C77.8694 64.8469 78.2198 65.9255 78.4637 66.8767C76.1732 67.5502 73.081 69.1397 69.0552 72.5074C69.0552 72.5074 69.8055 55.1578 73.2156 48.4082L73.2418 48.527Z" fill="#E4E5E3"/>
<path fill-rule="evenodd" clip-rule="evenodd" d="M69.206 69.9699C75.1332 64.4572 80.2625 64.5161 82.8679 65.0803C83.5261 66.4436 83.8463 67.1533 83.8463 67.1533C83.8463 67.1533 79.7361 63.5721 69.0552 72.5069C69.0552 72.5069 69.0972 71.538 69.206 69.9699Z" fill="#0074BD"/>
<path fill-rule="evenodd" clip-rule="evenodd" d="M77.9282 65.0967C78.1482 65.74 78.3238 66.329 78.4637 66.8762C78.393 66.897 78.321 66.9189 78.2484 66.9416L78.2451 66.9425C78.1735 66.965 78.1014 66.9881 78.0284 67.0122L78.0222 67.0144C77.9501 67.0382 77.8771 67.063 77.8036 67.0886L77.7649 67.1022L77.6881 67.1294C77.6628 67.1387 77.637 67.148 77.6112 67.1571L77.5745 67.1707L77.5339 67.1855L77.4557 67.2146C77.4299 67.2246 77.4036 67.2344 77.3774 67.2444L77.3406 67.2585L77.2982 67.2747L77.271 67.2855L77.26 67.2897C77.208 67.3103 77.155 67.331 77.1025 67.3523L77.0581 67.3702L77.029 67.3821L77.0151 67.3878C76.9636 67.4088 76.9116 67.4305 76.8591 67.4525L76.8443 67.4589L76.8362 67.4623L76.8128 67.4721L76.7899 67.4818L76.7817 67.4852L76.7655 67.4921C76.7144 67.5138 76.6634 67.536 76.6114 67.5587L76.5932 67.5666L76.5846 67.5704L76.5627 67.5799L76.5398 67.5902L76.5302 67.5945L76.5116 67.6026L76.4782 67.6174L76.3932 67.6556L76.3594 67.6711L76.3379 67.6809L76.3283 67.6852L76.3078 67.6945L76.2849 67.705L76.2735 67.7105L76.2529 67.7198L76.2219 67.7341L76.1355 67.7747L76.1021 67.7902L76.0773 67.8019L76.0677 67.8066L76.0482 67.8159L76.0253 67.8269L76.0114 67.8336L75.9899 67.8441L75.9604 67.8582L75.9456 67.8656L75.9007 67.8871C75.6053 68.0307 75.3003 68.1873 74.9862 68.3581L74.9853 68.3586C74.939 68.3839 74.8917 68.4097 74.845 68.4357L74.8426 68.4369C74.7958 68.4626 74.749 68.4889 74.7023 68.5151L74.6989 68.5171C74.6522 68.5433 74.6049 68.5698 74.5581 68.5965L74.5538 68.5989C74.5071 68.6256 74.4603 68.6524 74.4126 68.6798L74.4073 68.6829C74.3605 68.7101 74.3138 68.7373 74.266 68.7652L74.2598 68.7688C74.2131 68.7965 74.1658 68.8242 74.1181 68.8523L74.1114 68.8566C74.0642 68.8848 74.0164 68.9132 73.9692 68.9418L73.9611 68.9466C73.9138 68.9752 73.8661 69.0041 73.8188 69.0332L73.8098 69.0385C73.7625 69.0676 73.7148 69.0969 73.6671 69.1265L73.6575 69.1323C73.6098 69.1619 73.5621 69.1917 73.5139 69.222L73.5038 69.2282C73.4795 69.2435 73.4556 69.2585 73.4313 69.274L73.3855 69.3031L73.3487 69.3263C73.3249 69.3415 73.3005 69.3571 73.2762 69.3726L73.2304 69.4019L73.1927 69.4263C73.1683 69.4418 73.1444 69.4575 73.1201 69.4733L73.0738 69.5031L73.0352 69.5284C73.0108 69.5441 72.9865 69.5601 72.9621 69.5761L72.9163 69.6064L72.881 69.6296L72.8762 69.6327C72.8519 69.6487 72.828 69.6649 72.8037 69.6811L72.7574 69.7119L72.7211 69.736L72.7163 69.7391C72.692 69.7553 72.6677 69.7716 72.6433 69.7883L72.597 69.8193L72.5598 69.8446L72.555 69.8479C72.5307 69.8644 72.5063 69.8811 72.482 69.8978L72.4357 69.9293L72.397 69.9556L72.3923 69.9589C72.3679 69.9756 72.3436 69.9925 72.3188 70.0095L72.273 70.0412L72.2333 70.0687L72.2286 70.072C72.2042 70.089 72.1794 70.1061 72.1546 70.1233L72.1088 70.1555L72.0682 70.1842L72.0634 70.1873C72.0386 70.2047 72.0143 70.2219 71.9895 70.2395L71.9436 70.272L71.9016 70.3016L71.8969 70.3047C71.8725 70.3223 71.8477 70.34 71.8224 70.3577L71.7766 70.3904L71.7336 70.4214L71.7293 70.4245C71.7045 70.4424 71.6797 70.4603 71.6544 70.4784L71.6086 70.5116L71.5642 70.5438L71.5604 70.5469C71.5351 70.565 71.5103 70.5834 71.485 70.6018L71.4396 70.6352L71.3938 70.6686L71.39 70.6715C71.3647 70.6901 71.3394 70.7085 71.3141 70.7273L71.2688 70.761L71.222 70.7956L71.2182 70.7984C71.1929 70.8173 71.1676 70.8361 71.1423 70.8552L71.0969 70.8891L71.0487 70.9249L71.0454 70.9275C71.0196 70.9466 70.9943 70.9659 70.9686 70.9853L70.9237 71.0194L70.8745 71.0566L70.8712 71.059C70.8454 71.0786 70.8197 71.0981 70.7939 71.1177L70.749 71.1518L70.6984 71.1905L70.6956 71.1929C70.6698 71.2127 70.6435 71.2327 70.6178 71.2525L70.5729 71.2869L70.5185 71.3289C70.4927 71.3492 70.4665 71.3695 70.4402 71.3898L70.3958 71.4244L70.3405 71.4676C70.3142 71.4881 70.2875 71.5088 70.2612 71.5296L70.2173 71.5642L70.161 71.6088C70.1343 71.6298 70.1076 71.6508 70.0813 71.6718L70.0374 71.7067L69.9801 71.7525C69.9534 71.7737 69.9262 71.7952 69.8995 71.8167L69.856 71.8515L69.7978 71.8985C69.7706 71.9202 69.7439 71.942 69.7167 71.9639L69.6737 71.9988L69.6141 72.047C69.5869 72.0692 69.5597 72.0913 69.5324 72.1135L69.4895 72.1484L69.4294 72.198C69.4017 72.2205 69.3745 72.2431 69.3468 72.2658L69.3043 72.3006L69.2427 72.3515C69.2151 72.3744 69.1874 72.3973 69.1597 72.4207L69.1177 72.4555L69.0552 72.5078L69.0571 72.461L69.0628 72.3445L69.0638 72.3221L69.0662 72.2784L69.069 72.2202L69.0719 72.1649L69.0752 72.0973L69.079 72.0303L69.0829 71.9544L69.0872 71.8751L69.0919 71.7916L69.0967 71.7002L69.102 71.6103L69.1082 71.506L69.1134 71.411L69.1206 71.2931L69.1263 71.195C69.1473 70.8454 69.174 70.4343 69.206 69.9706C72.4462 66.9564 75.4473 65.6078 77.9282 65.0967Z" fill="#006293"/>
<path fill-rule="evenodd" clip-rule="evenodd" d="M74.2803 102.604C69.4837 103.991 64.0093 104.759 57.7762 104.726C49.8582 104.683 42.6538 104.122 36.2273 103.027C37.2081 99.6237 38.9167 93.1495 39.2604 88.3552C39.7472 81.5541 38.4657 76.1943 37.2057 71.5433C35.9457 66.8899 38.1626 61.313 38.7688 56.5617C39.2604 52.7125 37.2343 47.4315 37.2343 47.4315C39.2389 45.3625 45.4959 44.2481 48.1543 43.0501C48.6388 42.833 49.2425 42.4082 49.2425 42.4082C49.2425 42.4082 51.395 45.9185 55.3564 45.7443C57.7881 45.6393 59.6924 43.988 60.8808 42.4082C61.0288 42.5967 61.1982 42.7662 61.3915 42.9093C64.3029 45.0929 73.3496 47.7942 73.2135 48.4815C71.4166 53.4213 75.1441 61.585 75.5665 65.8399C76.07 70.9062 72.3831 74.5477 71.8342 86.7946C71.5383 93.3905 73.1634 99.3588 74.2803 102.604Z" fill="#F7F7F7"/>
<path fill-rule="evenodd" clip-rule="evenodd" d="M74.2802 102.604C69.4837 103.99 64.0093 104.759 57.7762 104.725C49.8582 104.682 42.6538 104.122 36.2273 103.026C37.2081 99.6233 38.9167 93.1491 39.2604 88.3549C39.7472 81.5538 38.4657 76.194 37.2057 71.543C35.9457 66.8896 38.1626 61.3126 38.7688 56.5614C39.2604 52.7122 37.2343 47.4312 37.2343 47.4312C39.2389 45.3622 45.4959 44.2478 48.1543 43.0498L47.9443 43.1787C46.9898 43.7609 43.038 46.1783 40.9022 47.6531C40.9022 47.6531 41.7637 59.9596 39.8617 64.9065C39.8617 64.9065 39.1601 72.4283 53.5547 73.927C53.5547 73.927 45.138 77.6115 43.8088 92.5597C43.8088 92.5597 43.8732 107.076 72.858 97.5687C73.3114 99.5923 73.8364 101.313 74.2802 102.604Z" fill="#E4E5E3"/>
<path fill-rule="evenodd" clip-rule="evenodd" d="M48.1782 43.0392L48.1553 43.0497C48.1553 43.0497 50.8347 47.84 55.5735 47.379C59.0247 47.044 61.138 44.628 62.031 43.3398C61.7948 43.1947 61.5805 43.0511 61.392 42.9098C61.1991 42.7652 61.0297 42.5972 60.8813 42.4082C59.6914 43.9875 57.7881 45.6389 55.3559 45.7448C51.394 45.9171 49.243 42.4087 49.243 42.4087C49.243 42.4087 48.6583 42.8187 48.1782 43.0392Z" fill="#0074BD"/>
<path fill-rule="evenodd" clip-rule="evenodd" d="M64.0981 27.1084C64.0981 27.1084 64.7 27.138 64.6451 26.3605C64.5907 25.5835 64.2628 25.6866 64.7028 24.9077C64.984 24.4104 65.5982 24.0219 66.0889 24.1631C66.7656 24.3569 67.3011 25.4398 66.3948 27.3809C65.7066 28.8557 64.2891 28.398 64.0981 27.1084Z" fill="#F7B088"/>
</g>
<defs>
<linearGradient id="paint0_linear_751_14805" x1="0.000736862" y1="52.5001" x2="105.001" y2="52.5001" gradientUnits="userSpaceOnUse">
<stop stop-color="#00A378"/>
<stop offset="1" stop-color="#96E6A1"/>
</linearGradient>
<clipPath id="clip0_751_14805">
<rect width="105" height="105" fill="white"/>
</clipPath>
</defs>
</svg>
