<svg width="105" height="105" viewBox="0 0 105 105" fill="none" xmlns="http://www.w3.org/2000/svg">
<g clip-path="url(#clip0_751_14763)">
<path fill-rule="evenodd" clip-rule="evenodd" d="M105.012 60.0628C105.014 60.4924 105.012 60.9291 105 61.3706C104.74 72.4075 100.194 87.3485 87.4053 96.5599C87.4029 96.5647 87.4005 96.5647 87.3981 96.567C85.2838 98.0919 82.9452 99.4569 80.3631 100.624H80.3607C78.9838 101.247 77.54 101.81 76.0223 102.311C70.8224 104.032 64.7825 105.005 57.7881 104.967C49.7866 104.924 42.513 104.351 36.0364 103.235C12.6023 99.1944 -0.422454 88.0215 0.0237963 68.9616C0.594137 44.6326 14.7023 43.3034 21.1025 27.6083C27.9466 10.8226 40.8736 0.814201 59.282 0.523065C81.1793 0.179429 89.1139 10.4002 90.0804 23.5276C90.9108 34.7769 104.542 42.776 105 59.4257C105.007 59.6357 105.009 59.8481 105.012 60.0628Z" fill="url(#paint0_linear_751_14763)"/>
<path fill-rule="evenodd" clip-rule="evenodd" d="M24.7806 76.9155C24.7806 76.9155 22.6658 77.5147 21.2705 73.9032L24.5811 72.4258L24.7806 76.9155Z" fill="#006293"/>
<path fill-rule="evenodd" clip-rule="evenodd" d="M87.4054 96.5597C87.403 96.5645 87.4007 96.5645 87.3983 96.5669C85.284 98.0918 82.9453 99.4568 80.3633 100.624H80.3609C79.2441 96.963 77.533 91.6653 76.421 89.6798C74.6527 86.5227 73.6313 77.3066 71.1328 71.6843C71.1328 71.6843 71.5099 64.9309 81.7641 63.5635C81.7641 63.5635 85.0191 77.7743 85.3913 81.3467C85.7803 85.0813 86.3005 90.9446 87.4054 96.5597Z" fill="#F9CDB5"/>
<path fill-rule="evenodd" clip-rule="evenodd" d="M87.3983 96.5667C85.2839 98.0916 82.9453 99.4566 80.3633 100.624H80.3609C79.2441 96.9628 77.533 91.6651 76.421 89.6797C76.0845 89.0783 75.7767 88.2598 75.4784 87.2861V87.2838C74.2112 83.1434 73.1564 76.2349 71.1328 71.6841C71.1328 71.6841 70.1091 67.1405 76.0869 64.9355C77.1441 64.5441 78.4231 64.2267 79.9671 64.0215C79.9671 64.0215 80.3131 66.1501 80.8119 68.9636C79.3419 69.5149 77.2586 70.7534 75.9914 73.4977C75.9914 73.4977 77.4734 84.4082 80.1867 88.7108C82.3535 92.1472 82.4084 96.593 86.816 93.9441C87.0188 94.8342 87.2145 95.7124 87.3983 96.5667Z" fill="#F7B088"/>
<path fill-rule="evenodd" clip-rule="evenodd" d="M28.2073 55.182C28.2073 55.182 15.4756 66.5859 14.2153 70.4645C14.2153 70.4645 11.0329 81.737 23.0019 73.7684C34.971 65.7999 35.0655 66.0929 35.0445 65.5753C35.0232 65.0575 34.6975 52.8434 28.2073 55.182Z" fill="#F7B088"/>
<path fill-rule="evenodd" clip-rule="evenodd" d="M19.7236 61.939C19.7236 61.939 24.21 69.6615 24.7808 76.9155L38.9498 67.7393L33.9091 47.5332C33.9091 47.5332 31.839 48.7388 29.5111 51.3738C27.1832 54.0088 24.1086 58.4826 19.7236 61.939Z" fill="#F1F1F1"/>
<path fill-rule="evenodd" clip-rule="evenodd" d="M34.8346 51.2422L38.9498 67.7389L24.7808 76.9152C24.21 69.6611 19.7236 61.9386 19.7236 61.9386C21.4337 60.5905 22.9445 59.0878 24.2897 57.5995C25.3908 59.2067 27.1545 62.2051 27.9182 65.8391L30.5668 56.5349L31.0259 64.9573C31.0259 64.9573 34.7887 56.0729 34.7964 51.6071C34.7964 51.4646 34.8095 51.3434 34.8346 51.2422Z" fill="#E4E5E3"/>
<path fill-rule="evenodd" clip-rule="evenodd" d="M21.1858 60.71C22.5441 63.0639 26.1305 69.9089 25.8945 76.1941L24.7811 76.9153C24.2102 69.6612 19.7239 61.9387 19.7239 61.9387C20.2279 61.5414 20.7147 61.1304 21.1858 60.71Z" fill="#0074BD"/>
<path fill-rule="evenodd" clip-rule="evenodd" d="M22.3784 69.7498C22.3784 69.7498 22.9039 63.3894 22.6872 56.5985C22.4297 48.5255 21.9722 42.4436 22.8726 40.7478C23.773 39.0525 25.8195 36.8623 25.821 35.2883C25.8224 33.7138 26.3648 32.733 26.6867 32.187C27.0086 31.641 27.1872 29.4517 26.2951 28.8685C25.4031 28.2853 24.9273 31.1289 24.4209 32.1488C23.9145 33.1687 22.5862 33.4346 22.1355 34.3013C22.1355 34.3013 21.0988 31.9603 20.3571 28.6046C19.6155 25.2489 19.4806 20.4413 17.8013 20.7377C16.7938 20.9157 18.3524 28.8909 17.9369 28.9592C17.2897 29.0647 15.4765 20.6322 14.1586 21.1567C12.8406 21.6817 16.0242 29.8746 15.2234 30.1863C14.4225 30.4979 13.473 23.272 12.0464 23.7932C10.8716 24.2223 13.8195 31.5393 12.8809 31.9918C12.0929 32.3712 10.6129 26.5423 9.41184 27.2176C8.63651 27.6538 10.6542 31.7546 11.0477 33.7104C11.4412 35.6658 12.1335 37.5687 12.9635 39.1585C13.7934 40.7478 15.2193 41.9673 15.1069 44.1737C14.8377 49.4518 8.98325 75.4611 15.672 76.5414C20.0827 77.2537 22.3784 69.7498 22.3784 69.7498Z" fill="#F9CDB5"/>
<path fill-rule="evenodd" clip-rule="evenodd" d="M21.2409 31.8664C21.7277 33.3803 22.1355 34.301 22.1355 34.301C22.5863 33.4342 23.9146 33.1684 24.421 32.1485C24.9233 31.1367 25.3955 28.3317 26.2732 28.8543C26.2806 28.8591 26.288 28.8634 26.2952 28.8682C26.2952 28.8682 25.1061 31.3037 25.2001 32.6382C25.2941 33.9726 18.6679 38.4027 19.4979 41.1665C19.4979 41.1665 18.1873 38.4466 20.0711 36.0993C21.4967 34.3234 21.406 32.9398 21.2409 31.8664Z" fill="#F7B088"/>
<path fill-rule="evenodd" clip-rule="evenodd" d="M17.8952 20.7256L17.8971 20.7327C17.8971 20.7327 17.7382 21.903 18.0107 23.7797C18.2833 25.6558 18.8648 28.6058 17.9616 28.9705L17.9566 28.9476C18.2976 28.6106 16.8111 20.9122 17.801 20.737C17.8329 20.7318 17.8642 20.728 17.8952 20.7256ZM14.2861 21.1327L14.2183 21.2597C14.2183 21.2597 14.331 23.8756 15.0361 25.925C15.7413 27.9749 15.9024 30.0276 15.2752 30.2462L15.2523 30.1694C15.942 29.6625 12.8574 21.6744 14.1582 21.1561C14.2002 21.1394 14.2429 21.1317 14.2861 21.1327ZM12.1789 23.7658L12.173 23.8064C12.173 23.8064 11.9546 24.9342 12.4312 26.7058C12.9077 28.4775 13.8324 31.6227 12.9629 31.9348L12.9593 31.9262C13.6334 31.0748 10.9089 24.2078 12.046 23.7925C12.0909 23.7763 12.135 23.7672 12.1789 23.7658Z" fill="#F7B088"/>
<path fill-rule="evenodd" clip-rule="evenodd" d="M9.40174 27.2235L9.41152 27.2178C9.41152 27.2178 10.9927 32.1929 11.6848 33.2114C12.3766 34.2294 15.6161 41.389 17.5898 41.8882C19.5636 42.3874 16.2227 42.5683 16.2637 44.6201C16.3014 46.5134 12.4305 72.0046 21.9473 70.9195C21.0928 72.9992 18.9756 77.0751 15.6719 76.5415C8.98317 75.4612 14.8376 49.452 15.1068 44.1738C15.2195 41.9674 13.7936 40.748 12.9634 39.1587C12.1334 37.5689 11.4411 35.666 11.0476 33.7106C10.6555 31.7628 8.6529 27.6884 9.40174 27.2235Z" fill="#F7B088"/>
<path fill-rule="evenodd" clip-rule="evenodd" d="M65.6814 24.485L63.0941 34.2176L49.0112 34.7602C49.0112 34.7602 44.3034 25.8267 45.5806 24.9819C46.858 24.1371 65.6814 24.485 65.6814 24.485Z" fill="#803E26"/>
<path fill-rule="evenodd" clip-rule="evenodd" d="M63.2974 27.7119L48.9945 28.9461C48.9945 28.9461 50.5404 43.2242 47.4482 45.6855C44.3268 48.1707 50.665 58.9117 55.8954 58.5027C61.93 58.0309 66.6913 50.5361 63.8324 45.9576C60.9359 41.319 63.2974 27.7119 63.2974 27.7119Z" fill="#F9CDB5"/>
<path fill-rule="evenodd" clip-rule="evenodd" d="M49.3719 37.3881C49.4497 33.15 48.9944 28.9461 48.9944 28.9461L63.2973 27.7119C63.2973 27.7119 62.5394 32.0804 62.4091 36.7109C61.445 38.4329 58.6439 40.2079 55.8428 40.2403C53.9599 40.2623 51.1884 39.4094 49.3719 37.3881Z" fill="#F7B088"/>
<path fill-rule="evenodd" clip-rule="evenodd" d="M47.3591 24.7574C47.3591 24.7574 46.9161 22.8664 45.2392 22.8086C43.5623 22.7504 42.4756 25.1721 42.9295 26.6459C43.3834 28.1193 45.4624 31.2597 47.8864 28.5755L47.3591 24.7574Z" fill="#F7B088"/>
<path fill-rule="evenodd" clip-rule="evenodd" d="M46.6241 27.2313C46.6241 27.2313 46.0228 27.2609 46.0772 26.4839C46.1316 25.7064 46.4597 25.8095 46.0197 25.0306C45.7385 24.5333 45.1245 24.1452 44.6337 24.286C43.9571 24.4803 43.4216 25.5627 44.3277 27.5043C45.0159 28.9791 46.4334 28.5213 46.6241 27.2313Z" fill="#E89972"/>
<path fill-rule="evenodd" clip-rule="evenodd" d="M64.3594 26.8984C64.3594 26.8984 64.9612 26.928 64.9063 26.1505C64.8519 25.3735 64.524 25.4766 64.9641 24.6977C65.2452 24.2004 65.8594 23.8119 66.3501 23.9532C67.0268 24.1469 67.5624 25.2299 66.656 27.1709C65.9678 28.6457 64.5503 28.188 64.3594 26.8984Z" fill="#C9C9C9"/>
<path fill-rule="evenodd" clip-rule="evenodd" d="M56.5177 10.0342C52.1979 9.78599 45.6154 12.8448 46.7463 25.3246C47.6295 35.0724 52.4728 37.4669 55.2577 37.5246C58.1643 37.5847 63.2095 33.2578 63.9068 26.6089C64.6041 19.96 66.2584 10.594 56.5177 10.0342Z" fill="#F9CDB5"/>
<path fill-rule="evenodd" clip-rule="evenodd" d="M56.3478 37.3709C55.9626 37.4793 55.5956 37.5318 55.2577 37.5246C52.4728 37.4668 47.6295 35.0724 46.7463 25.3246C45.6154 12.8448 52.1979 9.78599 56.5177 10.0342C64.7879 10.5095 64.8437 17.3321 64.2452 23.4513C63.8138 23.7276 63.6391 23.8894 63.6391 23.8894C63.6391 23.8894 63.2716 20.8411 62.0565 18.9611C60.8413 17.0806 60.2032 16.453 59.9837 15.2045C59.9837 15.2045 55.9793 16.1595 52.9477 17.0434C48.6842 18.2862 46.1707 24.0996 48.0282 30.4803C49.1045 34.1772 52.7616 37.5253 56.3478 37.3709Z" fill="#F7B088"/>
<path fill-rule="evenodd" clip-rule="evenodd" d="M54.4845 21.8281C54.4845 21.8281 55.0759 23.9754 54.7623 25.8668C54.4492 27.7578 53.9209 27.9277 55.4295 28.8832C55.4295 28.8832 53.6712 28.6961 53.4732 27.8146C53.2746 26.9326 54.1705 26.8414 54.3036 25.4229C54.4368 24.004 54.4845 21.8281 54.4845 21.8281Z" fill="#E89972"/>
<path fill-rule="evenodd" clip-rule="evenodd" d="M51.7172 30.6436C52.1988 29.406 54.0129 30.33 55.3259 30.2227C57.1953 30.069 57.8859 29.082 58.5713 30.0222C59.2567 30.9624 57.8955 33.1388 55.3235 33.1689C52.751 33.1994 51.218 31.9265 51.7172 30.6436Z" fill="#D89595"/>
<path fill-rule="evenodd" clip-rule="evenodd" d="M58.875 21.7871C59.4473 21.7871 59.9116 22.4037 59.9116 23.1636C59.9116 23.9234 59.4473 24.5405 58.875 24.5405C58.3023 24.5405 57.8379 23.9234 57.8379 23.1636C57.8379 22.4037 58.3023 21.7871 58.875 21.7871Z" fill="#383637"/>
<path fill-rule="evenodd" clip-rule="evenodd" d="M50.9141 21.7871C51.4863 21.7871 51.9512 22.4037 51.9512 23.1636C51.9512 23.9234 51.4863 24.5405 50.9141 24.5405C50.3418 24.5405 49.877 23.9234 49.877 23.1636C49.877 22.4037 50.3418 21.7871 50.9141 21.7871Z" fill="#383637"/>
<path fill-rule="evenodd" clip-rule="evenodd" d="M56.3225 20.2482C56.3225 20.2482 58.832 19.0412 61.2403 20.6081C61.2403 20.6081 60.3354 18.8913 58.926 18.9324C57.0923 18.9853 56.3225 20.2482 56.3225 20.2482Z" fill="#9B4C34"/>
<path fill-rule="evenodd" clip-rule="evenodd" d="M52.6007 20.2482C52.6007 20.2482 50.0917 19.0412 47.6831 20.6081C47.6831 20.6081 48.5878 18.8913 49.9976 18.9324C51.8308 18.9853 52.6007 20.2482 52.6007 20.2482Z" fill="#9B4C34"/>
<path fill-rule="evenodd" clip-rule="evenodd" d="M60.5034 14.2663C60.5034 14.2663 57.5853 15.5277 54.8654 15.7172L55.8051 14.6409C55.8051 14.6409 53.1581 15.7878 52.0366 16.6803C52.0366 16.6803 52.3253 15.6384 53.4483 14.9583C53.4483 14.9583 50.8944 16.5481 49.5285 18.083C49.5285 18.083 49.8712 16.5133 50.7732 15.7845C50.7732 15.7845 48.4699 17.6821 47.9998 18.9937C47.9998 18.9937 47.7425 18.1909 47.6762 17.2702C47.6762 17.2702 47.5325 22.2367 47.1872 23.1087C46.8419 23.9807 46.7465 26.2511 46.9572 27.0438C47.1677 27.8361 46.8892 26.6548 46.8892 26.6548C46.8892 26.6548 45.8251 22.7918 45.0476 22.8491C45.0476 22.8491 44.7906 22.7379 44.3334 23.0433L43.7955 18.7517C43.7955 18.7517 43.0681 10.7125 49.6211 8.30895C56.1736 5.90588 61.6789 8.86259 61.8125 11.6217C61.8125 11.6217 66.5986 13.3972 67.4778 18.294L66.139 23.1703C66.139 23.1703 64.5912 23.3884 63.7507 25.317C63.7507 25.317 63.2076 18.4978 62.5595 17.4473C61.9113 16.3968 60.6446 16.2584 60.5034 14.2663Z" fill="#9B4C34"/>
<path fill-rule="evenodd" clip-rule="evenodd" d="M45.0505 12.3604C48.406 13.3144 54.3466 14.5992 58.9337 13.3946C58.9337 13.3946 60.701 13.1307 61.4675 12.4386C61.4675 12.4386 61.4613 14.9935 62.7223 15.8888C63.6415 16.5417 65.4637 17.7464 67.474 18.2747L67.4778 18.2938L66.1391 23.1701C66.1391 23.1701 64.5913 23.3882 63.7508 25.3169C63.7508 25.3169 63.2077 18.4976 62.5595 17.4471C61.9114 16.3966 60.6447 16.2582 60.5034 14.2661C60.5034 14.2661 57.5854 15.5275 54.8654 15.717L55.8052 14.6408C55.8052 14.6408 53.1582 15.7876 52.0366 16.6801C52.0366 16.6801 52.3048 15.7122 53.33 15.0331C53.4064 14.9844 53.4484 14.9581 53.4484 14.9581C53.4078 14.9825 53.3682 15.0078 53.33 15.0331C52.8122 15.3653 50.7189 16.7451 49.5286 18.0829C49.5286 18.0829 49.8564 16.5799 50.7155 15.833C50.7528 15.801 50.7733 15.7843 50.7733 15.7843C50.7537 15.8001 50.7346 15.8163 50.7155 15.833C50.3561 16.1365 48.426 17.8051 47.9998 18.9935C47.9998 18.9935 47.7426 18.1907 47.6763 17.2701C47.6763 17.2701 47.5326 22.2366 47.1873 23.1085C46.8926 23.8526 46.7799 25.6161 46.8842 26.6093L46.8878 26.6437L46.8892 26.6551C46.8966 26.6866 47.1649 27.8254 46.957 27.0436C46.9291 26.9382 46.9064 26.8064 46.8892 26.6551L46.889 26.6547L46.8878 26.6437L46.8861 26.6294L46.884 26.6093C46.8363 26.1764 45.7753 22.7954 45.0474 22.8489C45.0474 22.8489 44.7904 22.7377 44.3332 23.0431L43.7953 18.7515C43.7955 18.7515 43.4913 15.3872 45.0505 12.3604Z" fill="#803E26"/>
<path fill-rule="evenodd" clip-rule="evenodd" d="M62.5594 17.4473C63.4943 18.943 65.6635 20.8349 66.5713 21.5938L66.1389 23.1702C66.1389 23.1702 64.5911 23.3884 63.7506 25.317C63.7506 25.317 63.2118 18.5512 62.567 17.4597L62.5594 17.4473ZM47.5844 19.4408C47.5071 20.8946 47.3778 22.6271 47.1869 23.1087C46.8922 23.8527 46.7795 25.6163 46.8838 26.6095L46.8888 26.6553C46.8962 26.6868 47.1645 27.8256 46.9566 27.0438C46.9287 26.9383 46.906 26.8066 46.8888 26.6553L46.8886 26.6548L46.8836 26.6095C46.8358 26.1766 45.7749 22.7956 45.047 22.849C45.047 22.849 44.806 22.7774 44.3328 23.0433L44.1118 21.2793C45.4677 20.7376 47.047 19.8561 47.5844 19.4408Z" fill="#803E26"/>
<path fill-rule="evenodd" clip-rule="evenodd" d="M54.3505 30.1702C54.6879 30.2169 55.0206 30.2475 55.326 30.2227C57.1955 30.069 57.8861 29.082 58.5715 30.0222C59.2568 30.9624 57.8957 33.1388 55.3236 33.1689C53.867 33.186 52.7435 32.7856 52.1335 32.2019C52.5984 31.6454 53.3587 30.8431 54.3505 30.1702Z" fill="#EDAEAE"/>
<path fill-rule="evenodd" clip-rule="evenodd" d="M52.467 30.0262C53.2483 29.8702 54.4095 30.2978 55.3259 30.2229C57.1033 30.0768 57.8154 29.1772 58.4697 29.8969C58.0168 30.576 57.1863 31.2853 55.7106 31.3344C53.7509 31.3993 52.7472 30.8543 52.467 30.0262Z" fill="#F7F7F7"/>
<path fill-rule="evenodd" clip-rule="evenodd" d="M64.0338 24.7571C64.0338 24.7571 64.4838 23.2279 65.8087 23.1697C67.1332 23.1114 68.187 24.5647 67.6162 26.6495C67.2157 28.1118 65.4646 31.238 63.5503 28.5538L64.0338 24.7571Z" fill="#F9CDB5"/>
<path fill-rule="evenodd" clip-rule="evenodd" d="M64.3594 26.8984C64.3594 26.8984 64.9612 26.928 64.9063 26.1505C64.8519 25.3735 64.524 25.4766 64.9641 24.6977C65.2452 24.2004 65.8594 23.8119 66.3501 23.9532C67.0268 24.1469 67.5624 25.2299 66.656 27.1709C65.9678 28.6457 64.5503 28.188 64.3594 26.8984Z" fill="#F7B088"/>
<path fill-rule="evenodd" clip-rule="evenodd" d="M79.2888 49.7412C79.2888 49.7412 82.1763 54.9764 83.442 59.3626C84.7077 63.7489 88.0687 75.3457 88.0687 75.3457C88.0687 75.3457 83.0215 79.9516 74.4349 80.2432C74.4349 80.2432 71.8743 57.3315 79.2888 49.7412Z" fill="#F1F1F1"/>
<path fill-rule="evenodd" clip-rule="evenodd" d="M79.2778 49.7665C79.0602 50.291 75.5775 58.7805 75.9946 64.403L78.612 58.9814C78.612 58.9814 78.7203 65.1967 77.3033 67.5817L80.8795 67.6697L77.8727 70.5789C77.8727 70.5789 77.8913 76.8527 84.6719 77.582C82.3333 78.8012 78.8526 80.0931 74.4349 80.2432C74.4349 80.2432 71.8743 57.3315 79.2888 49.7412L79.2778 49.7665Z" fill="#E8E8E8"/>
<path fill-rule="evenodd" clip-rule="evenodd" d="M87.6236 73.8096L88.0689 75.3457C88.0689 75.3457 83.0217 79.9516 74.4351 80.2432C74.4351 80.2432 74.3745 79.7013 74.2991 78.7572C82.2566 77.875 86.3201 74.9431 87.6236 73.8096Z" fill="#0074BD"/>
<path fill-rule="evenodd" clip-rule="evenodd" d="M82.1044 76.9404C82.8294 77.2485 83.678 77.4745 84.6721 77.5814C84.1242 77.8671 83.5138 78.1568 82.8427 78.4348L82.7769 78.4622L82.71 78.4894L82.6976 78.4944L82.6428 78.5166L82.628 78.5226L82.5755 78.5436L82.5583 78.5505L82.5077 78.5708L82.4886 78.5782L82.4394 78.5978L82.4189 78.6059L82.3707 78.6247L82.3488 78.6331L82.3015 78.6514L82.2786 78.6603L82.2323 78.6782L82.2084 78.6872L82.1626 78.7047L82.1378 78.714L82.0925 78.7312L82.0667 78.7407L82.0218 78.7574L81.9956 78.7672L81.9507 78.7837L81.924 78.7934L81.8791 78.8097L81.8519 78.8195L81.8075 78.8357L81.7799 78.8457L81.735 78.8617L81.7073 78.8717L81.6624 78.8875L81.6343 78.8975L81.5894 78.9132L81.5608 78.9233L81.5159 78.9388L81.4873 78.9486L81.4419 78.9641L81.4133 78.9738L81.3675 78.9894L81.3388 78.9991L81.2925 79.0147L81.2644 79.0242L81.2171 79.04L81.189 79.0493L81.1408 79.065L81.1136 79.0738L81.0639 79.0901L81.0377 79.0984L80.9857 79.1151L80.9618 79.1228L80.885 79.1469L80.8081 79.171L80.7303 79.1951L80.6521 79.2189L80.5743 79.2426L80.496 79.2659L80.4678 79.2743L80.4172 79.2891L80.3862 79.2982L80.3385 79.312L80.3056 79.3215L80.2588 79.3349L80.2249 79.3447L80.1791 79.3576L80.1438 79.3674L80.0989 79.3798L80.0631 79.3898L80.0187 79.402L79.982 79.412L79.9376 79.4239L79.9003 79.4339L79.8564 79.4456L79.8187 79.4557L79.7748 79.4673L79.7366 79.4774L79.6927 79.4888L79.6541 79.4986L79.6102 79.5098L79.5715 79.5196L79.5276 79.5306L79.4885 79.5404L79.4446 79.5513L79.4049 79.5611L79.361 79.5719L79.3214 79.5814L79.277 79.5919L79.2374 79.6015L79.193 79.612L79.1529 79.6215L79.1081 79.6318L79.068 79.6411L79.0231 79.6513L78.983 79.6606L78.9382 79.6707L78.8976 79.6797L78.8523 79.6898L78.8117 79.6986L78.7663 79.7084L78.7253 79.7172L78.6795 79.727L78.6389 79.7356L78.5926 79.7451L78.5521 79.7537L78.5053 79.7633L78.4647 79.7716L78.4175 79.7812L78.3769 79.7893L78.3292 79.7986L78.2891 79.8064L78.2404 79.8158L78.2008 79.8234L78.1511 79.8329L78.112 79.8403L78.0605 79.8499L78.0228 79.8568L77.9335 79.873L77.8438 79.889L77.7536 79.9048L77.6634 79.92L77.5727 79.9351L77.5345 79.9413L77.4815 79.9499L77.4414 79.9563L77.3899 79.9644L77.3484 79.9709L77.2983 79.9787L77.2558 79.9852L77.2057 79.9926L77.1632 79.9988L77.1131 80.006L77.0701 80.0122L77.0205 80.0191L76.9766 80.0253L76.9269 80.0322L76.883 80.0382L76.8334 80.0449L76.789 80.0508L76.7394 80.0573L76.6945 80.063L76.6453 80.0692L76.6 80.0747L76.5504 80.0806L76.4783 80.0892L76.4702 80.0902L76.3838 80.1002L76.3776 80.1009L76.2888 80.1107L76.1924 80.121L76.0974 80.1308L76.0068 80.1398L76.0015 80.1403L75.9127 80.1489L75.9051 80.1496L75.8178 80.1577L75.8082 80.1584L75.7218 80.1661L75.7113 80.167L75.6259 80.1742L75.614 80.1751L75.529 80.1821L75.5166 80.183L75.4316 80.1895L75.4135 80.1909L75.3901 80.1926L75.3643 80.1945L75.3405 80.1961L75.3147 80.1981L75.2908 80.1997L75.2651 80.2014L75.2412 80.2031L75.215 80.2047L75.1916 80.2062L75.1653 80.2078L75.1415 80.2093L75.1152 80.2109L75.0913 80.2124L75.0417 80.2152L74.9916 80.2181L74.9415 80.221L74.8909 80.2236L74.8408 80.2262L74.7902 80.2286L74.7396 80.231L74.689 80.2334L74.6384 80.2355L74.5878 80.2377L74.5368 80.2396L74.4857 80.2415L74.4351 80.2432L74.4327 80.2231L74.4308 80.2078L74.426 80.1596L74.4189 80.0933L74.4093 79.9969L74.4055 79.9585L74.4031 79.9336L74.3964 79.869L74.395 79.8501L74.3855 79.7547L74.3759 79.6513L74.3735 79.6251L74.3654 79.5358L74.3626 79.5065L74.353 79.4015L74.3516 79.3822L74.3396 79.2447L74.3268 79.0939L74.3258 79.0874L74.3134 78.9366L74.3115 78.9128C74.3072 78.8622 74.3029 78.8104 74.2991 78.7572C77.5097 78.4009 80.087 77.7112 82.1044 76.9404Z" fill="#006293"/>
<path fill-rule="evenodd" clip-rule="evenodd" d="M76.0869 64.9355C75.8793 67.1405 75.7552 69.5221 75.7719 72.0421C75.8316 81.3012 75.4187 85.358 75.4784 87.2838V87.2862C75.4999 88.0546 75.5977 88.4841 75.8316 88.7681C76.1633 89.1714 75.7409 91.615 75.1896 92.7414C74.9534 93.2234 75.1085 95.2781 75.3615 97.464C75.3925 97.7313 75.4259 97.9986 75.4593 98.2682C75.4688 98.3541 75.4808 98.44 75.4903 98.5259C75.5046 98.6357 75.519 98.7479 75.5333 98.8577C75.5595 99.0605 75.5858 99.2609 75.6144 99.459C75.624 99.533 75.6335 99.6046 75.6431 99.6786C75.6574 99.7859 75.6717 99.8909 75.686 99.9959C75.7409 100.387 75.7934 100.762 75.8459 101.115C75.853 101.17 75.8602 101.227 75.8698 101.282C75.8793 101.344 75.8888 101.409 75.896 101.468C75.9103 101.559 75.9223 101.645 75.9342 101.731C75.9413 101.771 75.9485 101.814 75.9533 101.855C75.9604 101.898 75.9676 101.938 75.9724 101.979C75.9891 102.096 76.0058 102.206 76.0225 102.311C70.8226 104.031 64.7827 105.005 57.7883 104.967C49.7868 104.924 42.5132 104.351 36.0366 103.234C36.3205 100.251 36.7429 95.4642 36.6642 93.8439C36.5496 91.4194 35.1823 89.3504 35.5402 87.3387C35.8982 85.327 36.6308 68.5437 36.0724 63.9332C35.5163 59.3228 34.0034 48.3145 33.9175 47.5628C33.9175 47.5628 37.8096 45.7372 40.0791 45.2551C42.3461 44.7731 45.9591 43.9283 48.5053 41.962C48.5053 41.962 52.302 45.6083 56.5927 45.5081C60.8834 45.4055 63.3938 41.1387 63.3938 41.1387C63.3938 41.1387 67.0808 43.9069 72.3618 45.9353C77.6404 47.9637 79.2918 49.7367 79.2918 49.7367C79.2918 49.7367 76.9532 55.8029 76.0869 64.9355Z" fill="#F7F7F7"/>
<path fill-rule="evenodd" clip-rule="evenodd" d="M76.0225 102.31C70.8226 104.031 64.7827 105.005 57.7883 104.966C49.7868 104.924 42.5132 104.351 36.0366 103.234C36.3205 100.251 36.7429 95.464 36.6642 93.8436C36.5496 91.4191 35.1823 89.3501 35.5402 87.3384C35.8982 85.3267 36.6308 68.5434 36.0724 63.933C35.5163 59.3225 34.0034 48.3142 33.9175 47.5625L33.958 47.6651C34.359 48.6674 37.5925 56.8383 38.2917 61.6778L39.4586 54.4615C39.4586 54.4615 39.7712 63.124 39.6376 68.8178L41.561 65.317C41.4846 65.5247 38.9646 72.3258 39.0911 76.7525C39.22 81.246 43.6371 90.0088 61.165 88.0663C61.165 88.0663 46.9995 92.2137 41.1529 92.2973C41.1529 92.2973 50.4049 99.1247 66.5176 95.2922L54.8173 100.602C54.8173 100.602 66.1047 101.208 75.3615 97.4638C75.3925 97.731 75.4259 97.9983 75.4593 98.268C75.4688 98.3539 75.4808 98.4398 75.4903 98.5257C75.5046 98.6355 75.519 98.7476 75.5333 98.8574C75.5595 99.0602 75.5858 99.2607 75.6144 99.4588C75.624 99.5327 75.6335 99.6043 75.6431 99.6783C75.6574 99.7857 75.6717 99.8907 75.686 99.9957C75.7409 100.387 75.7934 100.762 75.8459 101.115C75.853 101.17 75.8602 101.227 75.8698 101.282C75.8793 101.344 75.8888 101.408 75.896 101.468C75.9103 101.559 75.9223 101.645 75.9342 101.731C75.9413 101.771 75.9485 101.814 75.9533 101.855C75.9604 101.898 75.9676 101.938 75.9724 101.979C75.9891 102.096 76.0058 102.205 76.0225 102.31Z" fill="#E4E5E3"/>
<path fill-rule="evenodd" clip-rule="evenodd" d="M47.0173 42.9308C47.539 42.6416 48.0394 42.3199 48.5043 41.9605C48.5043 41.9605 52.3015 45.6083 56.5921 45.5067C60.8833 45.405 63.3933 41.1387 63.3933 41.1387C63.3933 41.1387 63.7684 41.4203 64.4509 41.8694C63.5589 43.5866 61.3081 46.8497 56.91 47.3494C51.9301 47.9155 48.164 44.2176 47.0173 42.9308Z" fill="#0074BD"/>
</g>
<defs>
<linearGradient id="paint0_linear_751_14763" x1="0.0126998" y1="52.7414" x2="105.013" y2="52.7414" gradientUnits="userSpaceOnUse">
<stop stop-color="#00A378"/>
<stop offset="1" stop-color="#96E6A1"/>
</linearGradient>
<clipPath id="clip0_751_14763">
<rect width="105" height="105" fill="white"/>
</clipPath>
</defs>
</svg>
